<?xml version="1.0" standalone="no"?>
<!DOCTYPE svg PUBLIC "-//W3C//DTD SVG 20010904//EN"
 "http://www.w3.org/TR/2001/REC-SVG-20010904/DTD/svg10.dtd">
<svg version="1.0" xmlns="http://www.w3.org/2000/svg"
 width="237.000000pt" height="213.000000pt" viewBox="0 0 237.000000 213.000000"
 preserveAspectRatio="xMidYMid meet">
<metadata>
Created by potrace 1.16, written by Peter Selinger 2001-2019
</metadata>
<g transform="translate(0.000000,213.000000) scale(0.100000,-0.100000)"
fill="#000000" stroke="none">
<path d="M1559 2113 c-21 -5 -72 -104 -180 -353 -231 -536 -440 -883 -665
-1105 l-41 -40 45 -40 c47 -41 122 -148 149 -213 22 -54 32 -64 48 -48 18 18
137 45 242 56 106 10 132 15 175 29 18 6 52 12 76 15 40 3 66 16 68 34 1 18
28 98 36 107 4 5 8 18 8 30 0 11 7 31 16 43 32 47 34 209 9 815 -10 257 22
557 61 557 30 0 69 -116 98 -290 29 -180 38 -239 52 -370 7 -74 20 -180 28
-235 8 -55 17 -130 21 -168 4 -37 12 -73 19 -80 16 -15 27 -162 14 -175 -6 -6
10 -10 44 -11 97 -1 165 -42 347 -213 126 -119 137 -125 104 -51 -75 172 -217
545 -309 813 -145 424 -188 537 -256 674 -81 161 -148 231 -209 219z"/>
<path d="M1283 1624 c-4 -10 -13 -25 -20 -32 -7 -8 -11 -18 -8 -23 4 -5 2 -9
-4 -9 -5 0 -12 4 -16 10 -8 13 -35 1 -29 -14 2 -6 -4 -12 -15 -13 -11 -1 -39
-20 -61 -42 -51 -50 -108 -91 -182 -131 -60 -31 -164 -63 -179 -54 -4 2 -27
-19 -49 -48 l-42 -52 34 -31 c34 -32 162 -134 212 -171 l29 -21 -34 -47 c-93
-129 -225 -263 -309 -315 -19 -11 -31 -21 -26 -21 23 0 138 86 192 143 95 100
138 156 215 278 108 170 320 592 305 607 -3 3 -9 -4 -13 -14z"/>
</g>
</svg>
